<svg t="1655195057784" class="icon" viewBox="0 0 1024 1024" version="1.1" xmlns="http://www.w3.org/2000/svg" p-id="1160" width="48" height="48">
  <path d="M196.923077 78.769231a118.153846 118.153846 0 0 0-118.153846 118.153846v630.153846a118.153846 118.153846 0 0 0 118.153846 118.153846h630.153846a118.153846 118.153846 0 0 0 118.153846-118.153846V196.923077a118.153846 118.153846 0 0 0-118.153846-118.153846H196.923077z m0-78.769231h630.153846a196.923077 196.923077 0 0 1 196.923077 196.923077v630.153846a196.923077 196.923077 0 0 1-196.923077 196.923077H196.923077a196.923077 196.923077 0 0 1-196.923077-196.923077V196.923077a196.923077 196.923077 0 0 1 196.923077-196.923077z" p-id="1161" fill="#a9a9a9"></path>
</svg>